<?xml version="1.0" encoding="UTF-8"?>
<svg version="1.1" xmlns="http://www.w3.org/2000/svg" width="758" height="158">
<path d="M0 0 C250.14 0 500.28 0 758 0 C758 52.14 758 104.28 758 158 C507.86 158 257.72 158 0 158 C0 105.86 0 53.72 0 0 Z " fill="#171717" transform="translate(0,0)"/>
<path d="M0 0 C7.26 0 14.52 0 22 0 C23.4375 8.875 23.4375 8.875 23.88452148 11.66748047 C24.00384033 12.39338379 24.12315918 13.11928711 24.24609375 13.8671875 C24.36654053 14.61081543 24.4869873 15.35444336 24.61108398 16.12060547 C24.93247105 18.07884647 24.93247105 18.07884647 26 20 C26.56420768 23.59682397 27.0265819 27.20268696 27.5 30.8125 C27.81726565 33.88720102 27.81726565 33.88720102 29 36 C29.23074219 34.98164062 29.46148437 33.96328125 29.69921875 32.9140625 C31.53784775 24.89790776 33.49905004 16.92842324 35.6875 9 C35.90172607 8.21705566 36.11595215 7.43411133 36.33666992 6.62744141 C37.87605319 1.12394681 37.87605319 1.12394681 39 0 C40.63472882 -0.08700342 42.27314055 -0.10701063 43.91015625 -0.09765625 C45.39418945 -0.09282227 45.39418945 -0.09282227 46.90820312 -0.08789062 C47.94912109 -0.07951172 48.99003906 -0.07113281 50.0625 -0.0625 C51.62967773 -0.05573242 51.62967773 -0.05573242 53.22851562 -0.04882812 C55.8190666 -0.03699913 58.40950559 -0.02051689 61 0 C62.1322462 3.78954026 63.2544389 7.5819896 64.375 11.375 C64.69210938 12.43589844 65.00921875 13.49679688 65.3359375 14.58984375 C67.22806626 21.01519767 68.82711952 27.40416348 70 34 C70.66 34 71.32 34 72 34 C72.07347656 33.03900391 72.07347656 33.03900391 72.1484375 32.05859375 C72.60509228 26.77557038 73.52913774 22.10475724 75 17 C75.56471716 13.66898722 76.05956903 10.33311368 76.53515625 6.98828125 C77 4 77 4 78 0 C84.93 0 91.86 0 99 0 C98.58333292 7.08334031 97.79014348 13.39188571 95.76171875 20.1796875 C94.65117108 24.29156144 94.04659555 28.45393564 93.4296875 32.6640625 C93 35 93 35 92 36 C91.49813937 38.01046579 91.05027281 40.03445172 90.625 42.0625 C90.36074219 43.320625 90.09648437 44.57875 89.82421875 45.875 C89.25398679 48.6822958 88.71896429 51.49400652 88.20703125 54.3125 C88.07796387 55.02140381 87.94889648 55.73030762 87.81591797 56.46069336 C87.56884665 57.83297528 87.32675673 59.20616606 87.09033203 60.58032227 C86.41024242 64.38062443 85.45939571 67.35151072 84 71 C76.74 71 69.48 71 62 71 C60.02213291 65.72568777 58.22567511 60.62012742 56.73828125 55.21875 C56.54276169 54.51979614 56.34724213 53.82084229 56.14579773 53.10070801 C55.53138382 50.90138006 54.92185601 48.70073402 54.3125 46.5 C53.8929028 44.99470113 53.47298369 43.48949195 53.05273438 41.984375 C52.03143873 38.32394109 51.01451804 34.66231788 50 31 C48.72475844 35.24868961 47.45563756 39.49918512 46.1875 43.75 C45.83107422 44.93722656 45.47464844 46.12445313 45.10742188 47.34765625 C43.09001889 54.12168831 41.22554761 60.89746139 39.60668945 67.77832031 C39 70 39 70 38 71 C36.29227642 71.08713831 34.58101351 71.10700007 32.87109375 71.09765625 C31.31938477 71.09282227 31.31938477 71.09282227 29.73632812 71.08789062 C28.64771484 71.07951172 27.55910156 71.07113281 26.4375 71.0625 C24.7987793 71.05573242 24.7987793 71.05573242 23.12695312 71.04882812 C20.41791505 71.03699826 17.70898401 71.02051543 15 71 C14.66693848 69.28031006 14.66693848 69.28031006 14.32714844 67.52587891 C11.5647652 53.41439382 8.43890547 39.39536716 5.25 25.375 C4.49084758 22.03511444 3.73246112 18.69506564 2.97674561 15.35440063 C2.51137892 13.29727698 2.04404908 11.24059622 1.57452393 9.18441772 C1.26354767 7.8099498 1.26354767 7.8099498 0.94628906 6.40771484 C0.76294006 5.60200043 0.57959106 4.79628601 0.39068604 3.96615601 C0 2 0 2 0 0 Z " fill="#F9F9F9" transform="translate(151,27)"/>
<path d="M0 0 C11.6015625 -0.12375 11.6015625 -0.12375 23.4375 -0.25 C27.0735022 -0.30462402 27.0735022 -0.30462402 30.78295898 -0.36035156 C32.72899493 -0.37204659 34.67504074 -0.38223648 36.62109375 -0.390625 C37.6114563 -0.41108887 38.60181885 -0.43155273 39.62219238 -0.45263672 C46.67568785 -0.45613939 53.23315575 0.5589696 58.6235199 5.48309326 C62.58197136 10.02511672 63.35663264 13.90876987 63.28125 19.72265625 C62.57479047 25.44301609 57.99242015 29.22938097 54 33 C54.886875 33.37125 55.77375 33.7425 56.6875 34.125 C60.99674704 36.56419644 63.7537294 39.5074588 66 44 C66.71481815 52.28914127 66.12158273 58.18473222 60.75 64.75 C52.76026363 71.28705703 43.50418483 71.15256803 33.69140625 71.09765625 C32.83349487 71.09664917 31.9755835 71.09564209 31.0916748 71.09460449 C27.91526943 71.08940901 24.73888324 71.07544799 21.5625 71.0625 C14.446875 71.041875 7.33125 71.02125 0 71 C0 47.57 0 24.14 0 0 Z " fill="#FBFBFB" transform="translate(381,27)"/>
<path d="M0 0 C6.93 0 13.86 0 21 0 C21.33 7.26 21.66 14.52 22 22 C24.31 21.01 26.62 20.02 29 19 C36.11093871 17.97314965 42.46896614 18.11448104 48.3515625 22.5078125 C53.73533616 27.38127586 56.93225754 32.10166377 57.40625 39.4765625 C57.70775011 49.40776405 57.91052676 58.12888135 51 66 C46.30675774 70.79690825 42.06375666 72.37157983 35.375 72.625 C28.7342361 72.31432099 24.74195025 70.74195025 20 66 C19.67 67.65 19.34 69.3 19 71 C12.73 71 6.46 71 0 71 C0 47.57 0 24.14 0 0 Z " fill="#FAFAFA" transform="translate(315,27)"/>
<path d="M0 0 C6.6 0 13.2 0 20 0 C20 23.43 20 46.86 20 71 C13.73 71 7.46 71 1 71 C0.67 69.68 0.34 68.36 0 67 C-0.9075 67.639375 -1.815 68.27875 -2.75 68.9375 C-8.72731228 72.73079433 -15.05128952 72.77504848 -22 72 C-26.60434686 70.3439204 -29.78799699 67.81359488 -32.3125 63.625 C-33.1478125 61.830625 -33.1478125 61.830625 -34 60 C-34.51949219 58.94167969 -35.03898438 57.88335937 -35.57421875 56.79296875 C-37.28819395 52.75177589 -37.53937953 49.04139951 -37.5 44.6875 C-37.49355469 43.94201904 -37.48710938 43.19653809 -37.48046875 42.4284668 C-37.23650588 35.03655222 -35.4847159 29.29488701 -29.9921875 24.1015625 C-24.98286695 20.16434746 -21.16620329 18.82925333 -14.75 18.6875 C-13.10257813 18.63142578 -13.10257813 18.63142578 -11.421875 18.57421875 C-8 19 -8 19 -1 23 C-0.67 15.41 -0.34 7.82 0 0 Z " fill="#FBFBFB" transform="translate(616,27)"/>
<path d="M0 0 C1.18021729 0.0146228 1.18021729 0.0146228 2.38427734 0.02954102 C10.06831508 0.26231891 16.63034429 1.29642016 22.55859375 6.53125 C30.21802415 14.72315417 30.1875 19.31503975 30.1875 31.4375 C17.3175 31.4375 4.4475 31.4375 -8.8125 31.4375 C-6.47401858 37.35481018 -6.47401858 37.35481018 -2.8125 39.4375 C0.96072288 39.78687249 3.310101 39.99164674 6.5625 37.9375 C10.4357294 35.72422606 13.82405739 36.14980049 18.1875 36.4375 C19.10144531 36.49164063 20.01539063 36.54578125 20.95703125 36.6015625 C26.1030894 36.99911206 26.1030894 36.99911206 28.1875 37.4375 C28.5175 38.0975 28.8475 38.7575 29.1875 39.4375 C24.11861398 46.84310652 19.28451911 51.63632238 10.1875 53.4375 C6.87006911 53.73459382 3.57912448 53.76248734 0.25 53.75 C-0.60529297 53.76611328 -1.46058594 53.78222656 -2.34179688 53.79882812 C-9.94686287 53.80462909 -16.57615778 52.2891232 -22.4296875 47.02734375 C-28.51455495 40.03146508 -30.25867293 32.65579787 -30.1484375 23.60546875 C-29.30179396 15.62142328 -25.08950446 10.04888766 -19.16796875 4.91015625 C-13.03939655 1.07852819 -7.15887553 -0.09945024 0 0 Z " fill="#FAFAFA" transform="translate(672.8125,45.5625)"/>
<path d="M0 0 C1.18021729 0.0146228 1.18021729 0.0146228 2.38427734 0.02954102 C10.06831508 0.26231891 16.63034429 1.29642016 22.55859375 6.53125 C30.21802415 14.72315417 30.1875 19.31503975 30.1875 31.4375 C17.3175 31.4375 4.4475 31.4375 -8.8125 31.4375 C-6.47401858 37.35481018 -6.47401858 37.35481018 -2.8125 39.4375 C0.96072288 39.78687249 3.310101 39.99164674 6.5625 37.9375 C10.4357294 35.72422606 13.82405739 36.14980049 18.1875 36.4375 C19.10144531 36.49164063 20.01539063 36.54578125 20.95703125 36.6015625 C26.1030894 36.99911206 26.1030894 36.99911206 28.1875 37.4375 C28.5175 38.0975 28.8475 38.7575 29.1875 39.4375 C24.11861398 46.84310652 19.28451911 51.63632238 10.1875 53.4375 C6.87006911 53.73459382 3.57912448 53.76248734 0.25 53.75 C-0.60529297 53.76611328 -1.46058594 53.78222656 -2.34179688 53.79882812 C-9.94686287 53.80462909 -16.57615778 52.2891232 -22.4296875 47.02734375 C-28.51455495 40.03146508 -30.25867293 32.65579787 -30.1484375 23.60546875 C-29.30179396 15.62142328 -25.08950446 10.04888766 -19.16796875 4.91015625 C-13.03939655 1.07852819 -7.15887553 -0.09945024 0 0 Z " fill="#FAFAFA" transform="translate(278.8125,45.5625)"/>
<path d="M0 0 C11.55 0 23.1 0 35 0 C30.50113379 7.87301587 30.50113379 7.87301587 28.22265625 10.98828125 C27.71597412 11.6851001 27.20929199 12.38191895 26.68725586 13.09985352 C26.15108643 13.83002686 25.61491699 14.5602002 25.0625 15.3125 C23.89837683 16.91141417 22.73431609 18.51037378 21.5703125 20.109375 C20.97766602 20.92083984 20.38501953 21.73230469 19.77441406 22.56835938 C16.98440365 26.39176384 14.20983565 30.22626849 11.4375 34.0625 C10.90809814 34.79436523 10.37869629 35.52623047 9.83325195 36.28027344 C5.40447596 42.41377402 1.03567281 48.58864622 -3.30688477 54.78344727 C-6.89863439 59.89863439 -6.89863439 59.89863439 -8 61 C3.22 61.33 14.44 61.66 26 62 C21.50571935 69.86499114 21.50571935 69.86499114 18.8984375 73.12890625 C18.33116943 73.8463501 17.76390137 74.56379395 17.17944336 75.30297852 C16.58397705 76.04862061 15.98851074 76.7942627 15.375 77.5625 C11.10246772 82.97952962 6.90016911 88.41420554 2.9375 94.0625 C-2.79445679 102.2283599 -8.89897387 110.10811108 -15 118 C-15 114.73872583 -14.62571898 114.06154433 -12.88867188 111.4465332 C-12.42819458 110.74603348 -11.96771729 110.04553375 -11.49328613 109.32380676 C-10.99018921 108.57370834 -10.48709229 107.82360992 -9.96875 107.05078125 C-9.45824097 106.27816452 -8.94773193 105.50554779 -8.42175293 104.70951843 C-6.78757177 102.23953171 -5.14393454 99.77600331 -3.5 97.3125 C-2.39129913 95.64039016 -1.28321824 93.96786905 -0.17578125 92.29492188 C2.5411687 88.19098324 5.2708054 84.09591083 8 80 C-3.55 80 -15.1 80 -27 80 C-21.875 64.625 -21.875 64.625 -20.14086914 59.42480469 C-17.45584958 51.37309847 -14.77328832 43.32058899 -12.097229 35.26589966 C-10.8158591 31.40949142 -9.53337322 27.55345473 -8.25079346 23.69744873 C-7.62505324 21.8151808 -6.9998501 19.93273424 -6.37518311 18.05010986 C-5.49756998 15.40535005 -4.6181236 12.7612064 -3.73828125 10.1171875 C-3.47526718 9.32298401 -3.21225311 8.52878052 -2.94126892 7.71051025 C-1.11386711 2.22773422 -1.11386711 2.22773422 0 0 Z " fill="#FAFAFA" transform="translate(45,19)"/>
<path d="M0 0 C6.93 0 13.86 0 21 0 C21.03738281 2.43117187 21.07476562 4.86234375 21.11328125 7.3671875 C21.15946881 9.71705215 21.2107123 12.06675572 21.26245117 14.41650391 C21.29574214 16.05182134 21.32376106 17.68725482 21.34643555 19.32275391 C21.37990628 21.67140243 21.43221436 24.01898337 21.48828125 26.3671875 C21.49467117 27.10057343 21.5010611 27.83395935 21.50764465 28.58956909 C21.53994543 30.87324756 21.53994543 30.87324756 22 34 C24.82717213 36.33296251 24.82717213 36.33296251 28.0625 35.75 C31.099459 35.2406756 31.099459 35.2406756 33 33 C34.24211069 29.5026492 34.20337535 25.94720277 34.31640625 22.265625 C34.37924805 20.32236328 34.37924805 20.32236328 34.44335938 18.33984375 C34.48316671 16.97656524 34.52287906 15.61328394 34.5625 14.25 C34.60572274 12.87108125 34.64933821 11.49217474 34.69335938 10.11328125 C34.79943899 6.74230694 34.90022365 3.37116677 35 0 C41.6 0 48.2 0 55 0 C55 16.83 55 33.66 55 51 C48.73 51 42.46 51 36 51 C35.67 49.35 35.34 47.7 35 46 C33.948125 46.928125 33.948125 46.928125 32.875 47.875 C26.51420543 52.57645685 19.68688709 52.82543754 12 52 C6.63175767 50.31584554 3.64243362 46.87833899 1 42 C-0.28401859 37.80732122 -0.12532487 33.64211756 -0.09765625 29.296875 C-0.0962413 28.45908508 -0.09482635 27.62129517 -0.09336853 26.75811768 C-0.08778197 24.08870843 -0.07523194 21.4193838 -0.0625 18.75 C-0.05748326 16.93750121 -0.05292066 15.12500111 -0.04882812 13.3125 C-0.03866888 8.87494136 -0.01909086 4.43756514 0 0 Z " fill="#FAFAFA" transform="translate(454,47)"/>
<path d="M0 0 C6.6 0 13.2 0 20 0 C20 23.43 20 46.86 20 71 C13.4 71 6.8 71 0 71 C0 47.57 0 24.14 0 0 Z " fill="#FCFCFC" transform="translate(551,27)"/>
<path d="M0 0 C0.928125 0.495 0.928125 0.495 1.875 1 C1.23781399 3.00958663 0.56336513 5.00736409 -0.125 7 C-0.33125 7.63421875 -0.5375 8.2684375 -0.75 8.921875 C-1.4375 10.8125 -1.4375 10.8125 -3.125 14 C-5.4375 14.875 -5.4375 14.875 -8.125 15 C-11.23804814 15.15760028 -11.23804814 15.15760028 -14.125 16 C-17.20337741 19.93497732 -17.53217114 23.13704346 -17.63671875 28.05078125 C-17.65466995 28.70958786 -17.67262115 29.36839447 -17.69111633 30.04716492 C-17.74496656 32.13554631 -17.77903108 34.2237026 -17.8125 36.3125 C-17.8456957 37.7350572 -17.88018744 39.15758479 -17.91601562 40.58007812 C-18.00310216 44.05341317 -18.06337718 47.52574799 -18.125 51 C-25.055 51 -31.985 51 -39.125 51 C-39.125 34.17 -39.125 17.34 -39.125 0 C-32.855 0 -26.585 0 -20.125 0 C-19.795 1.65 -19.465 3.3 -19.125 5 C-18.50625 4.195625 -17.8875 3.39125 -17.25 2.5625 C-12.96090056 -2.60964933 -6.05511389 -1.93763644 0 0 Z " fill="#F8F8F8" transform="translate(749.125,47)"/>
<path d="M0 0 C6.6 0 13.2 0 20 0 C20 16.83 20 33.66 20 51 C13.4 51 6.8 51 0 51 C0 34.17 0 17.34 0 0 Z " fill="#FCFCFC" transform="translate(520,47)"/>
<path d="M0 0 C2.81295327 2.75710041 3.90767729 4.41958882 4.53125 8.33984375 C4.43638326 19.26137758 4.43638326 19.26137758 2.375 22.8125 C-0.55126621 25.5077452 -2.02036624 26.16243403 -6 26 C-8.74716387 24.22960551 -10.53145922 22.93708156 -12 20 C-12.17721577 17.54512577 -12.27736821 15.14438336 -12.3125 12.6875 C-12.34988281 11.37136719 -12.38726562 10.05523437 -12.42578125 8.69921875 C-11.94219336 4.49777168 -10.96928843 2.93623513 -8 0 C-4.99733781 -1.5013311 -3.18669322 -0.8922741 0 0 Z " fill="#1D1D1D" transform="translate(348,60)"/>
<path d="M0 0 C3.94412183 1.56121489 6.29121676 3.32637702 8 7.1875 C8.83940991 12.52322731 9.18039811 18.10274561 6.1875 22.8125 C4 25.1875 4 25.1875 1 27.1875 C-2.03075936 27.03207644 -3.65868717 26.4328186 -6.125 24.66015625 C-8.76528735 21.17827731 -8.62341645 17.94606875 -8.5625 13.75 C-8.58634766 12.99912109 -8.61019531 12.24824219 -8.63476562 11.47460938 C-8.62361605 7.24892179 -8.33148086 5.61439882 -5.65234375 2.1640625 C-3 0.1875 -3 0.1875 0 0 Z " fill="#1E1E1E" transform="translate(608,58.8125)"/>
<path d="M0 0 C6.6 0 13.2 0 20 0 C20 4.62 20 9.24 20 14 C13.4 14 6.8 14 0 14 C0 9.38 0 4.76 0 0 Z " fill="#FCFCFC" transform="translate(520,27)"/>
<path d="M0 0 C13.85714286 -0.42857143 13.85714286 -0.42857143 20 3 C20.36521739 9.45217391 20.36521739 9.45217391 18.75 11.875 C13.34448306 15.34997517 6.10363544 14.06103635 0 14 C0 9.38 0 4.76 0 0 Z " fill="#181818" transform="translate(404,68)"/>
<path d="M0 0 C2.0625 -0.061875 4.125 -0.12375 6.25 -0.1875 C7.99023438 -0.23970703 7.99023438 -0.23970703 9.765625 -0.29296875 C13.25717355 0.02329471 14.6141457 0.46937299 17 3 C17.5 6.5 17.5 6.5 17 10 C14.6141457 12.53062701 13.25717355 12.97670529 9.765625 13.29296875 C8.60546875 13.25816406 7.4453125 13.22335938 6.25 13.1875 C4.1875 13.125625 2.125 13.06375 0 13 C0 8.71 0 4.42 0 0 Z " fill="#191919" transform="translate(404,41)"/>
<path d="M0 0 C2.9375 1.75 2.9375 1.75 5 4 C5 5.32 5 6.64 5 8 C-0.94 8 -6.88 8 -13 8 C-11.23764023 0.95056092 -7.03703136 -1.00529019 0 0 Z " fill="#1D1D1D" transform="translate(677,59)"/>
<path d="M0 0 C2.9375 1.75 2.9375 1.75 5 4 C5 5.32 5 6.64 5 8 C-0.94 8 -6.88 8 -13 8 C-11.23764023 0.95056092 -7.03703136 -1.00529019 0 0 Z " fill="#1D1D1D" transform="translate(283,59)"/>
<path d="M0 0 C0.33 0.66 0.66 1.32 1 2 C-5.46015178 11.16791753 -12.09810046 20.15969463 -19 29 C-19 25.14487024 -17.73517124 23.72255618 -15.60546875 20.52734375 C-14.89712891 19.46322266 -14.18878906 18.39910156 -13.45898438 17.30273438 C-13.08604248 16.75061279 -12.71310059 16.19849121 -12.32885742 15.62963867 C-11.19333964 13.94615765 -10.07159222 12.25410248 -8.95117188 10.56054688 C-3.38810171 2.25873447 -3.38810171 2.25873447 0 0 Z " fill="#D5D5D5" transform="translate(49,108)"/>
<path d="M0 0 C0.33 0.66 0.66 1.32 1 2 C-0.65 4.31 -2.3 6.62 -4 9 C-4.66 8.67 -5.32 8.34 -6 8 C-4.73058503 4.08597051 -3.48832306 2.20927127 0 0 Z " fill="#E7E7E7" transform="translate(49,108)"/>
</svg>
